<svg xmlns="http://www.w3.org/2000/svg" width="2000" height="2000" version="1.0" viewBox="0 0 1500 1500"><defs><clipPath id="a"><path d="M30.813 30.813h1438.375v1438.375H30.813Zm0 0"/></clipPath><clipPath id="b"><path d="M1469.188 30.813H30.813v1105.75H309.5v332.624l541.637-332.624h618.05Zm0 0"/></clipPath><clipPath id="d"><path d="M.813.813h1438.375v1438.375H.813Zm0 0"/></clipPath><clipPath id="e"><path d="M1439.188.813H.813v1105.75H279.5v332.624l541.637-332.624h618.05Zm0 0"/></clipPath><clipPath id="c"><path d="M0 0h1440v1440H0z"/></clipPath><clipPath id="f"><path d="M30.813 30.813h1438.37v1438.37H30.814Zm0 0"/></clipPath><clipPath id="g"><path d="M1469.184 30.813H30.813v1105.75H309.5v332.62l541.637-332.62h618.047Zm0 0"/></clipPath></defs><g clip-path="url(#a)"><g clip-path="url(#b)"><g clip-path="url(#c)" transform="translate(30 30)"><g clip-path="url(#d)"><g clip-path="url(#e)"><path fill="#fff" d="M.813.813h1438.375v1438.375H.813Zm0 0"/></g></g></g></g></g><g clip-path="url(#f)"><g clip-path="url(#g)"><path fill="none" stroke="#000" stroke-width="60" d="M1469.184 30.813H30.812v1105.75H309.5v332.62l541.637-332.62h618.047Zm0 0"/></g></g></svg>