<svg xmlns="http://www.w3.org/2000/svg" xmlns:xlink="http://www.w3.org/1999/xlink" width="500" zoomAndPan="magnify" viewBox="0 0 375 374.999991" height="500" preserveAspectRatio="xMidYMid meet" version="1.0"><defs><clipPath id="263c83c623"><path d="M 375 0 L 0 0 L 0 288.28125 L 72.65625 288.28125 L 72.65625 375 L 213.867188 288.28125 L 375 288.28125 Z M 375 0 " clip-rule="nonzero"/></clipPath><clipPath id="7ac518731b"><path d="M 0 0 L 375 0 L 375 375 L 0 375 Z M 0 0 " clip-rule="nonzero"/></clipPath><clipPath id="e33cd38a67"><path d="M 375 0 L 0 0 L 0 288.28125 L 72.65625 288.28125 L 72.65625 375 L 213.867188 288.28125 L 375 288.28125 Z M 375 0 " clip-rule="nonzero"/></clipPath><clipPath id="d974699420"><rect x="0" width="375" y="0" height="375"/></clipPath></defs><rect x="-37.5" width="450" fill="#ffffff" y="-37.499999" height="449.999989" fill-opacity="1"/><rect x="-37.5" width="450" fill="#ffffff" y="-37.499999" height="449.999989" fill-opacity="1"/><g clip-path="url(#263c83c623)"><g transform="matrix(1, 0, 0, 1, 0, 0)"><g clip-path="url(#d974699420)"><g clip-path="url(#7ac518731b)"><g clip-path="url(#e33cd38a67)"><rect x="-82.5" width="540" fill="#ffffff" height="539.999987" y="-82.499998" fill-opacity="1"/></g></g></g></g><path stroke-linecap="butt" transform="matrix(0.75, 0, 0, 0.75, 0.0000045, 0)" fill="none" stroke-linejoin="miter" d="M 499.999995 0 L -0.000006 0 L -0.000006 384.375001 L 96.874994 384.375001 L 96.874994 500.000001 L 285.156244 384.375001 L 499.999995 384.375001 Z M 499.999995 0 " stroke="#000000" stroke-width="20" stroke-opacity="1" stroke-miterlimit="4"/></g></svg>