<svg xmlns="http://www.w3.org/2000/svg" xmlns:xlink="http://www.w3.org/1999/xlink" width="2000" zoomAndPan="magnify" viewBox="0 0 1500 1499.999933" height="2000" preserveAspectRatio="xMidYMid meet" version="1.0"><defs><clipPath id="f77fc6fcf6"><path d="M 30.8125 30.8125 L 1469.1875 30.8125 L 1469.1875 1469.1875 L 30.8125 1469.1875 Z M 30.8125 30.8125 " clip-rule="nonzero"/></clipPath><clipPath id="341af59d1e"><path d="M 1469.1875 30.8125 L 30.8125 30.8125 L 30.8125 1136.5625 L 309.5 1136.5625 L 309.5 1469.1875 L 851.136719 1136.5625 L 1469.1875 1136.5625 Z M 1469.1875 30.8125 " clip-rule="nonzero"/></clipPath><clipPath id="5c4101bc73"><path d="M 0.8125 0.8125 L 1439.1875 0.8125 L 1439.1875 1439.1875 L 0.8125 1439.1875 Z M 0.8125 0.8125 " clip-rule="nonzero"/></clipPath><clipPath id="6f80d40b6a"><path d="M 1439.1875 0.8125 L 0.8125 0.8125 L 0.8125 1106.5625 L 279.5 1106.5625 L 279.5 1439.1875 L 821.136719 1106.5625 L 1439.1875 1106.5625 Z M 1439.1875 0.8125 " clip-rule="nonzero"/></clipPath><clipPath id="4bd13425d3"><rect x="0" width="1440" y="0" height="1440"/></clipPath><clipPath id="b286e43fb6"><path d="M 30.8125 30.8125 L 1469.183594 30.8125 L 1469.183594 1469.183594 L 30.8125 1469.183594 Z M 30.8125 30.8125 " clip-rule="nonzero"/></clipPath><clipPath id="e6d0d998de"><path d="M 1469.183594 30.8125 L 30.8125 30.8125 L 30.8125 1136.5625 L 309.5 1136.5625 L 309.5 1469.183594 L 851.136719 1136.5625 L 1469.183594 1136.5625 Z M 1469.183594 30.8125 " clip-rule="nonzero"/></clipPath></defs><g clip-path="url(#f77fc6fcf6)"><g clip-path="url(#341af59d1e)"><g transform="matrix(1, 0, 0, 1, 30, 30)"><g clip-path="url(#4bd13425d3)"><g clip-path="url(#5c4101bc73)"><g clip-path="url(#6f80d40b6a)"><path fill="#ffffff" d="M 0.8125 0.8125 L 1439.1875 0.8125 L 1439.1875 1439.1875 L 0.8125 1439.1875 Z M 0.8125 0.8125 " fill-opacity="1" fill-rule="nonzero"/></g></g></g></g></g></g><g clip-path="url(#b286e43fb6)"><g clip-path="url(#e6d0d998de)"><path stroke-linecap="butt" transform="matrix(0.75, 0, 0, 0.75, 30.813971, 30.813918)" fill="none" stroke-linejoin="miter" d="M 1917.826329 -0.00189022 L -0.00196135 -0.00189022 L -0.00196135 1474.33157 L 371.581404 1474.33157 L 371.581404 1917.8264 L 1093.763758 1474.33157 L 1917.826329 1474.33157 Z M 1917.826329 -0.00189022 " stroke="#000000" stroke-width="80" stroke-opacity="1" stroke-miterlimit="4"/></g></g></svg>