<svg xmlns="http://www.w3.org/2000/svg" xmlns:xlink="http://www.w3.org/1999/xlink" width="2000" zoomAndPan="magnify" viewBox="0 0 1500 1499.999933" height="2000" preserveAspectRatio="xMidYMid meet" version="1.0"><defs><clipPath id="8b851860c8"><path d="M 30.8125 30.8125 L 1469.1875 30.8125 L 1469.1875 1469.1875 L 30.8125 1469.1875 Z M 30.8125 30.8125 " clip-rule="nonzero"/></clipPath><clipPath id="d1172001e9"><path d="M 1469.1875 30.8125 L 30.8125 30.8125 L 30.8125 1136.5625 L 309.5 1136.5625 L 309.5 1469.1875 L 851.136719 1136.5625 L 1469.1875 1136.5625 Z M 1469.1875 30.8125 " clip-rule="nonzero"/></clipPath><clipPath id="e02850f2b7"><path d="M 0.8125 0.8125 L 1439.1875 0.8125 L 1439.1875 1439.1875 L 0.8125 1439.1875 Z M 0.8125 0.8125 " clip-rule="nonzero"/></clipPath><clipPath id="358e07bc45"><path d="M 1439.1875 0.8125 L 0.8125 0.8125 L 0.8125 1106.5625 L 279.5 1106.5625 L 279.5 1439.1875 L 821.136719 1106.5625 L 1439.1875 1106.5625 Z M 1439.1875 0.8125 " clip-rule="nonzero"/></clipPath><clipPath id="da458262f1"><rect x="0" width="1440" y="0" height="1440"/></clipPath><clipPath id="36ccac317b"><path d="M 30.8125 30.8125 L 1469.183594 30.8125 L 1469.183594 1469.183594 L 30.8125 1469.183594 Z M 30.8125 30.8125 " clip-rule="nonzero"/></clipPath><clipPath id="d06ac2111e"><path d="M 1469.183594 30.8125 L 30.8125 30.8125 L 30.8125 1136.5625 L 309.5 1136.5625 L 309.5 1469.183594 L 851.136719 1136.5625 L 1469.183594 1136.5625 Z M 1469.183594 30.8125 " clip-rule="nonzero"/></clipPath></defs><rect x="-150" width="1800" fill="#ffffff" y="-149.999993" height="1799.99992" fill-opacity="1"/><rect x="-150" width="1800" fill="#ffffff" y="-149.999993" height="1799.99992" fill-opacity="1"/><g clip-path="url(#8b851860c8)"><g clip-path="url(#d1172001e9)"><g transform="matrix(1, 0, 0, 1, 30, 30)"><g clip-path="url(#da458262f1)"><g clip-path="url(#e02850f2b7)"><g clip-path="url(#358e07bc45)"><path fill="#ffffff" d="M 0.8125 0.8125 L 1439.1875 0.8125 L 1439.1875 1439.1875 L 0.8125 1439.1875 Z M 0.8125 0.8125 " fill-opacity="1" fill-rule="nonzero"/></g></g></g></g></g></g><g clip-path="url(#36ccac317b)"><g clip-path="url(#d06ac2111e)"><path stroke-linecap="butt" transform="matrix(0.75, 0, 0, 0.75, 30.813971, 30.813918)" fill="none" stroke-linejoin="miter" d="M 1917.826329 -0.00189022 L -0.00196135 -0.00189022 L -0.00196135 1474.33157 L 371.581404 1474.33157 L 371.581404 1917.8264 L 1093.763758 1474.33157 L 1917.826329 1474.33157 Z M 1917.826329 -0.00189022 " stroke="#000000" stroke-width="80" stroke-opacity="1" stroke-miterlimit="4"/></g></g></svg>