<svg xmlns="http://www.w3.org/2000/svg" xmlns:xlink="http://www.w3.org/1999/xlink" width="500" zoomAndPan="magnify" viewBox="0 0 375 374.999991" height="500" preserveAspectRatio="xMidYMid meet" version="1.0"><defs><clipPath id="004198c3d6"><path d="M 12.71875 12.71875 L 362.28125 12.71875 L 362.28125 362.28125 L 12.71875 362.28125 Z M 12.71875 12.71875 " clip-rule="nonzero"/></clipPath><clipPath id="8b444bde0c"><path d="M 362.28125 12.71875 L 12.71875 12.71875 L 12.71875 281.445312 L 80.445312 281.445312 L 80.445312 362.28125 L 212.078125 281.445312 L 362.28125 281.445312 Z M 362.28125 12.71875 " clip-rule="nonzero"/></clipPath><clipPath id="cae31e9dea"><path d="M 0.71875 0.71875 L 350.28125 0.71875 L 350.28125 350.28125 L 0.71875 350.28125 Z M 0.71875 0.71875 " clip-rule="nonzero"/></clipPath><clipPath id="03401158af"><path d="M 350.28125 0.71875 L 0.71875 0.71875 L 0.71875 269.445312 L 68.445312 269.445312 L 68.445312 350.28125 L 200.078125 269.445312 L 350.28125 269.445312 Z M 350.28125 0.71875 " clip-rule="nonzero"/></clipPath><clipPath id="7b87b5f686"><rect x="0" width="351" y="0" height="351"/></clipPath><clipPath id="060bf7b427"><path d="M 12.71875 12.71875 L 362.21875 12.71875 L 362.21875 362.21875 L 12.71875 362.21875 Z M 12.71875 12.71875 " clip-rule="nonzero"/></clipPath><clipPath id="0d4a8eb49b"><path d="M 362.277344 12.71875 L 12.71875 12.71875 L 12.71875 281.441406 L 80.445312 281.441406 L 80.445312 362.277344 L 212.078125 281.441406 L 362.277344 281.441406 Z M 362.277344 12.71875 " clip-rule="nonzero"/></clipPath></defs><g clip-path="url(#004198c3d6)"><g clip-path="url(#8b444bde0c)"><g transform="matrix(1, 0, 0, 1, 12, 12)"><g clip-path="url(#7b87b5f686)"><g clip-path="url(#cae31e9dea)"><g clip-path="url(#03401158af)"><path fill="#ffffff" d="M 0.71875 0.71875 L 350.28125 0.71875 L 350.28125 350.28125 L 0.71875 350.28125 Z M 0.71875 0.71875 " fill-opacity="1" fill-rule="nonzero"/></g></g></g></g></g></g><g clip-path="url(#060bf7b427)"><g clip-path="url(#0d4a8eb49b)"><path stroke-linecap="butt" transform="matrix(0.75, 0, 0, 0.75, 12.718604, 12.718593)" fill="none" stroke-linejoin="miter" d="M 466.078351 0.000209327 L 0.000195007 0.000209327 L 0.000195007 358.297108 L 90.302284 358.297108 L 90.302284 466.078365 L 265.812712 358.297108 L 466.078351 358.297108 Z M 466.078351 0.000209327 " stroke="#000000" stroke-width="20" stroke-opacity="1" stroke-miterlimit="4"/></g></g></svg>